<?xml version="1.0" encoding="UTF-8"?>
<svg width="1567px" height="270px" viewBox="0 0 1567 270" version="1.1" xmlns="http://www.w3.org/2000/svg" xmlns:xlink="http://www.w3.org/1999/xlink">
    <!-- Generator: Sketch 43.2 (39069) - http://www.bohemiancoding.com/sketch -->
    <title>Group</title>
    <desc>Created with Sketch.</desc>
    <defs></defs>
    <g id="Page-1" stroke="none" stroke-width="1" fill="none" fill-rule="evenodd">
        <g id="Group" transform="translate(0.000000, -12.000000)">
            <g id="gdg-logo" transform="translate(0.000000, 12.000000)">
                <g id="XMLID_6_" transform="translate(200.000000, 62.000000)" fill-rule="nonzero" fill="#757575">
                    <path d="M159.9,89.4 C159.9,111.4 153.4,129 140.3,142.1 C125.5,157.7 106.2,165.5 82.4,165.5 C59.6,165.5 40.3,157.6 24.3,141.8 C8.4,126 0.4,106.4 0.4,83.1 C0.4,59.8 8.4,40.2 24.3,24.4 C40.2,8.6 59.6,0.7 82.4,0.7 C93.7,0.7 104.5,2.9 114.8,7.3 C125.1,11.7 133.3,17.6 139.5,24.9 L125.6,38.8 C115.1,26.2 100.7,20 82.3,20 C65.7,20 51.3,25.8 39.2,37.5 C27.1,49.2 21,64.3 21,83 C21,101.7 27.1,116.8 39.2,128.5 C51.3,140.2 65.7,146 82.3,146 C99.9,146 114.6,140.1 126.4,128.4 C134,120.8 138.4,110.1 139.6,96.5 L82.3,96.5 L82.3,77.5 L158.7,77.5 C159.5,81.6 159.9,85.6 159.9,89.4 L159.9,89.4 Z" id="XMLID_3_"></path>
                    <path d="M180.3,161.9 L180.3,4.1 L228.5,4.1 C252.7,4.1 272.1,11.4 286.7,26 C301.2,40.6 308.5,59.6 308.5,83 C308.5,106.4 301.2,125.3 286.7,140 C272.2,154.6 252.8,161.9 228.5,161.9 L180.3,161.9 Z M200.6,142.5 L228.6,142.5 C246.8,142.5 261.2,137.3 271.9,126.9 C282.5,116.5 287.9,101.9 287.9,83.1 C287.9,64.4 282.6,49.9 271.9,39.4 C261.2,28.9 246.8,23.6 228.6,23.6 L200.6,23.6 L200.6,142.5 Z" id="XMLID_20_"></path>
                    <path d="M481,89.4 C481,111.4 474.5,129 461.4,142.1 C446.6,157.7 427.3,165.5 403.5,165.5 C380.7,165.5 361.4,157.6 345.4,141.8 C329.5,126 321.5,106.4 321.5,83.1 C321.5,59.8 329.5,40.2 345.4,24.4 C361.3,8.6 380.7,0.7 403.5,0.7 C414.8,0.7 425.6,2.9 435.9,7.3 C446.2,11.7 454.4,17.6 460.6,24.9 L446.7,38.8 C436.2,26.2 421.8,20 403.4,20 C386.8,20 372.4,25.8 360.3,37.5 C348.2,49.2 342.1,64.3 342.1,83 C342.1,101.7 348.2,116.8 360.3,128.5 C372.4,140.2 386.8,146 403.4,146 C421,146 435.7,140.1 447.5,128.4 C455.1,120.8 459.5,110.1 460.7,96.5 L403.4,96.5 L403.4,77.5 L479.8,77.5 C480.6,81.6 481,85.6 481,89.4 L481,89.4 Z" id="XMLID_23_"></path>
                    <polygon id="XMLID_25_" points="555 161.9 555 4.1 575.3 4.1 575.3 142.5 643.6 142.5 643.6 161.9"></polygon>
                    <polygon id="XMLID_27_" points="675.6 161.9 632 53.9 654 53.9 685.7 137.6 686.1 137.6 718.3 53.9 740 53.9 695.9 161.9"></polygon>
                    <path d="M770.8,26.8 C768,29.6 764.6,31 760.7,31 C756.8,31 753.4,29.6 750.6,26.8 C747.8,24 746.4,20.6 746.4,16.7 C746.4,12.8 747.8,9.4 750.6,6.6 C753.4,3.8 756.8,2.4 760.7,2.4 C764.6,2.4 768,3.8 770.8,6.6 C773.6,9.4 775,12.8 775,16.7 C775,20.6 773.6,24 770.8,26.8 Z M770.8,161.9 L750.5,161.9 L750.5,53.9 L770.8,53.9 L770.8,161.9 Z" id="XMLID_29_"></path>
                    <polygon id="XMLID_32_" points="825 161.9 781.4 53.9 803.4 53.9 835.1 137.6 835.5 137.6 867.7 53.9 889.3 53.9 845.2 161.9"></polygon>
                </g>
                <rect id="Rectangle" fill="#FFFFFF" x="681" y="0" width="632" height="270"></rect>
                <g id="XMLID_261_" transform="translate(0.000000, 47.000000)" fill-rule="nonzero" fill="#757575">
                    <polygon id="XMLID_259_" points="32.3 0 0 0 92.3 160 108.5 132"></polygon>
                    <path d="M120.9,91 L68.3,0 L36.1,0 L110.4,128.8 L120.9,110.6 C122.6,107.8 123.7,104.4 123.7,100.8 C123.6,97.2 122.6,93.9 120.9,91 L120.9,91 Z" id="XMLID_258_"></path>
                    <polygon id="XMLID_257_" points="56.3 104.1 0.9 200 33.2 200 72.5 132"></polygon>
                    <polygon id="XMLID_256_" points="74.3 135.3 37 200 69.2 200 90.5 163.2"></polygon>
                </g>
            </g>
            <text id="Warsaw" font-family="NotoSans, Noto Sans" font-size="220" font-weight="normal" fill="#757575">
                <tspan x="751.222656" y="235">Warsaw</tspan>
            </text>
        </g>
    </g>
</svg>