<?xml version="1.0" encoding="UTF-8" standalone="no"?>
<svg width="839px" height="200px" viewBox="0 0 839 200" version="1.1" xmlns="http://www.w3.org/2000/svg" xmlns:xlink="http://www.w3.org/1999/xlink">
    <!-- Generator: Sketch 43.2 (39069) - http://www.bohemiancoding.com/sketch -->
    <title>logo-light</title>
    <desc>Created with Sketch.</desc>
    <defs>
        <radialGradient cx="98.685446%" cy="97.8271186%" fx="98.685446%" fy="97.8271186%" r="324.704225%" gradientTransform="translate(0.986854,0.978271),scale(1.000000,0.722034),translate(-0.986854,-0.978271)" id="radialGradient-1">
            <stop stop-color="#BF360C" stop-opacity="0.2" offset="0%"></stop>
            <stop stop-color="#BF360C" stop-opacity="0.02" offset="100%"></stop>
        </radialGradient>
        <radialGradient cx="162.728302%" cy="157.694517%" fx="162.728302%" fy="157.694517%" r="263.10566%" gradientTransform="translate(1.627283,1.576945),scale(1.000000,0.691906),translate(-1.627283,-1.576945)" id="radialGradient-2">
            <stop stop-color="#263238" stop-opacity="0.2" offset="0%"></stop>
            <stop stop-color="#263238" stop-opacity="0.02" offset="100%"></stop>
        </radialGradient>
        <radialGradient cx="-1.25065013%" cy="0.781%" fx="-1.25065013%" fy="0.781%" r="167.971194%" gradientTransform="translate(-0.012507,0.007810),scale(1.000000,0.624875),translate(0.012507,-0.007810)" id="radialGradient-3">
            <stop stop-color="#FFFFFF" stop-opacity="0.1" offset="0%"></stop>
            <stop stop-color="#FFFFFF" stop-opacity="0" offset="100%"></stop>
        </radialGradient>
    </defs>
    <g id="Page-1" stroke="none" stroke-width="1" fill="none" fill-rule="evenodd">
        <g id="logo-light">
            <g id="XMLID_60_">
                <g id="XMLID_61_">
                    <g id="XMLID_62_">
                        <path d="M122.5,90.6 L70.1,0 L0,0 L57.8,100 L0,200 L70.1,200 L122.5,109.4 C125.8,103.6 125.8,96.4 122.5,90.6 L122.5,90.6 Z" id="XMLID_106_"></path>
                        <polygon id="XMLID_105_" fill="#FFC107" fill-rule="nonzero" points="92.4 159.8 75.8 131.1 35.9 200 70.1 200 92.9 160.6"></polygon>
                        <path d="M122.5,90.6 L70.1,0 L0,0 L57.8,100 L0,200 L70.1,200 L122.5,109.4 C125.8,103.6 125.8,96.4 122.5,90.6 L122.5,90.6 Z" id="XMLID_104_"></path>
                        <polygon id="XMLID_103_" fill="#0F9D58" fill-rule="nonzero" points="57.8 100 75.8 131.1 35.9 200 0 200"></polygon>
                        <path d="M122.5,90.6 L70.1,0 L0,0 L57.8,100 L0,200 L70.1,200 L122.5,109.4 C125.8,103.6 125.8,96.4 122.5,90.6 L122.5,90.6 Z" id="XMLID_102_"></path>
                        <polygon id="XMLID_101_" fill="#BF360C" fill-rule="nonzero" opacity="0.2" points="70.1 198.4 36.8 198.4 35.9 200 70.1 200 92.9 160.6 92.4 159.8"></polygon>
                        <path d="M122.5,90.6 L70.1,0 L0,0 L57.8,100 L0,200 L70.1,200 L122.5,109.4 C125.8,103.6 125.8,96.4 122.5,90.6 L122.5,90.6 Z" id="XMLID_100_"></path>
                        <polygon id="XMLID_99_" fill="#263238" fill-rule="nonzero" opacity="0.2" points="0.9 198.4 0 200 35.9 200 36.8 198.4"></polygon>
                        <path d="M122.5,90.6 L70.1,0 L0,0 L57.8,100 L0,200 L70.1,200 L122.5,109.4 C125.8,103.6 125.8,96.4 122.5,90.6 L122.5,90.6 Z" id="XMLID_98_"></path>
                        <polygon id="XMLID_96_" fill="#FFFFFF" fill-rule="nonzero" opacity="0.2" points="0 200 0.9 200 58.3 100.8 57.8 100"></polygon>
                        <path d="M122.5,90.6 L70.1,0 L0,0 L57.8,100 L0,200 L70.1,200 L122.5,109.4 C125.8,103.6 125.8,96.4 122.5,90.6 L122.5,90.6 Z" id="XMLID_94_"></path>
                        <polygon id="XMLID_92_" fill="url(#radialGradient-1)" fill-rule="nonzero" points="92.9 160.6 75.8 131.1 71.6 138.3"></polygon>
                        <path d="M122.5,90.6 L70.1,0 L0,0 L57.8,100 L0,200 L70.1,200 L122.5,109.4 C125.8,103.6 125.8,96.4 122.5,90.6 L122.5,90.6 Z" id="XMLID_90_"></path>
                        <polygon id="XMLID_89_" fill="url(#radialGradient-2)" fill-rule="nonzero" points="71.6 138.3 75.8 131.1 57.8 100 49.3 114.8"></polygon>
                        <path d="M122.5,90.6 L70.1,0 L0,0 L57.8,100 L0,200 L70.1,200 L122.5,109.4 C125.8,103.6 125.8,96.4 122.5,90.6 L122.5,90.6 Z" id="XMLID_88_"></path>
                        <g id="XMLID_85_" fill-rule="nonzero" fill="#4285F4">
                            <g id="XMLID_86_">
                                <polygon id="XMLID_87_" points="35.9 0 0 0 92.9 160.6 110.8 129.5"></polygon>
                            </g>
                        </g>
                        <path d="M122.5,90.6 L70.1,0 L0,0 L57.8,100 L0,200 L70.1,200 L122.5,109.4 C125.8,103.6 125.8,96.4 122.5,90.6 L122.5,90.6 Z" id="XMLID_84_"></path>
                        <path d="M122.5,109.4 C125.9,103.6 125.9,96.4 122.5,90.6 L70.1,0 L35.9,0 L110.8,129.5 L122.5,109.4 L122.5,109.4 Z" id="XMLID_83_" fill="#DB4437" fill-rule="nonzero"></path>
                        <path d="M122.5,90.6 L70.1,0 L0,0 L57.8,100 L0,200 L70.1,200 L122.5,109.4 C125.8,103.6 125.8,96.4 122.5,90.6 L122.5,90.6 Z" id="XMLID_82_"></path>
                        <polygon id="XMLID_71_" fill="#1A237E" fill-rule="nonzero" opacity="0.2" points="110.8 129.5 110.4 128.7 92.9 159 0.9 0 0 0 92.9 160.6 110.8 129.5"></polygon>
                        <path d="M122.5,90.6 L70.1,0 L0,0 L57.8,100 L0,200 L70.1,200 L122.5,109.4 C125.8,103.6 125.8,96.4 122.5,90.6 L122.5,90.6 Z" id="XMLID_69_"></path>
                        <path d="M70.1,1.6 L122.5,92.2 C124,94.9 124.8,97.8 125,100.8 C125.1,97.3 124.3,93.8 122.5,90.6 L70.1,0 L0,0 L0.9,1.6 L70.1,1.6 L70.1,1.6 Z" id="XMLID_67_" fill="#FFFFFF" fill-rule="nonzero" opacity="0.2"></path>
                        <path d="M122.5,90.6 L70.1,0 L0,0 L57.8,100 L0,200 L70.1,200 L122.5,109.4 C125.8,103.6 125.8,96.4 122.5,90.6 L122.5,90.6 Z" id="XMLID_66_"></path>
                        <path d="M110.8,129.5 L122.4,109.4 C124.2,106.3 125,102.7 124.9,99.2 C124.8,102.2 124,105.1 122.4,107.8 L110.3,128.7 L110.8,129.5 Z" id="XMLID_65_" fill="#3E2723" fill-rule="nonzero" opacity="0.2"></path>
                        <path d="M122.5,90.6 L70.1,0 L0,0 L57.8,100 L0,200 L70.1,200 L122.5,109.4 C125.8,103.6 125.8,96.4 122.5,90.6 L122.5,90.6 Z" id="XMLID_64_"></path>
                        <path d="M122.5,90.6 L70.1,0 L0,0 L57.8,100 L0,200 L70.1,200 L122.5,109.4 C125.8,103.6 125.8,96.4 122.5,90.6 L122.5,90.6 Z" id="XMLID_63_" fill="url(#radialGradient-3)" fill-rule="nonzero"></path>
                    </g>
                </g>
            </g>
            <g id="XMLID_7_" transform="translate(194.000000, 7.000000)">
                <path d="M81.5,44.8 C81.5,55.7 78.3,64.5 71.8,70.9 C64.4,78.6 54.8,82.5 43,82.5 C31.7,82.5 22.1,78.6 14.2,70.7 C6.3,62.9 2.3,53.1 2.3,41.6 C2.3,30.1 6.3,20.3 14.2,12.5 C22.1,4.7 31.7,0.7 43,0.7 C48.6,0.7 54,1.8 59.1,4 C64.2,6.2 68.3,9.1 71.3,12.8 L64.4,19.7 C59.2,13.5 52.1,10.4 43,10.4 C34.8,10.4 27.6,13.3 21.6,19.1 C15.6,24.9 12.6,32.4 12.6,41.7 C12.6,51 15.6,58.5 21.6,64.3 C27.6,70.1 34.7,73 43,73 C51.8,73 59,70.1 64.9,64.2 C68.7,60.4 70.9,55.1 71.5,48.3 L43,48.3 L43,38.9 L81,38.9 C81.3,41 81.5,42.9 81.5,44.8 L81.5,44.8 Z" id="XMLID_2_" fill="#FAFAFA" fill-rule="nonzero"></path>
                <path d="M91.4,80.8 L91.4,2.5 L115.4,2.5 C127.4,2.5 137.1,6.1 144.3,13.4 C151.5,20.7 155.1,30.1 155.1,41.7 C155.1,53.3 151.5,62.7 144.3,70 C137.1,77.3 127.5,80.9 115.4,80.9 L91.4,80.9 L91.4,80.8 Z M101.5,71.2 L115.4,71.2 C124.4,71.2 131.6,68.6 136.9,63.4 C142.2,58.2 144.8,51 144.8,41.6 C144.8,32.3 142.2,25.1 136.9,19.9 C131.6,14.7 124.4,12.1 115.4,12.1 L101.5,12.1 L101.5,71.2 L101.5,71.2 Z" id="XMLID_4_" fill="#FAFAFA" fill-rule="nonzero"></path>
                <path d="M240.5,44.8 C240.5,55.7 237.3,64.5 230.8,70.9 C223.4,78.6 213.8,82.5 202,82.5 C190.7,82.5 181.1,78.6 173.2,70.7 C165.3,62.9 161.3,53.1 161.3,41.6 C161.3,30.1 165.3,20.3 173.2,12.5 C181.1,4.7 190.7,0.7 202,0.7 C207.6,0.7 213,1.8 218.1,4 C223.2,6.2 227.3,9.1 230.3,12.8 L223.4,19.7 C218.2,13.5 211.1,10.4 202,10.4 C193.8,10.4 186.6,13.3 180.6,19.1 C174.6,24.9 171.6,32.4 171.6,41.7 C171.6,51 174.6,58.5 180.6,64.3 C186.6,70.1 193.7,73 202,73 C210.8,73 218,70.1 223.9,64.2 C227.7,60.4 229.9,55.1 230.5,48.3 L202,48.3 L202,38.9 L240,38.9 C240.3,41 240.5,42.9 240.5,44.8 L240.5,44.8 Z" id="XMLID_8_" fill="#FAFAFA" fill-rule="nonzero"></path>
                <path d="M276.8,80.8 L276.8,2.5 L300.8,2.5 C312.8,2.5 322.5,6.1 329.7,13.4 C336.9,20.7 340.5,30.1 340.5,41.7 C340.5,53.3 336.9,62.7 329.7,70 C322.5,77.3 312.9,80.9 300.8,80.9 L276.8,80.9 L276.8,80.8 Z M286.9,71.2 L300.8,71.2 C309.8,71.2 317,68.6 322.3,63.4 C327.6,58.2 330.2,51 330.2,41.6 C330.2,32.3 327.6,25.1 322.3,19.9 C317,14.7 309.8,12.1 300.8,12.1 L286.9,12.1 L286.9,71.2 L286.9,71.2 Z" id="XMLID_10_" fill="#FAFAFA" fill-rule="nonzero"></path>
                <path d="M373.4,82.6 C365.3,82.6 358.7,79.9 353.7,74.5 C348.6,69.1 346.1,62.3 346.1,54 C346.1,46.2 348.6,39.5 353.5,33.9 C358.4,28.3 364.7,25.5 372.4,25.5 C380.3,25.5 386.7,28.1 391.5,33.3 C396.3,38.5 398.7,45.4 398.7,54.1 L398.6,56 L356.3,56 C356.6,61.4 358.4,65.7 361.7,68.8 C365,71.9 368.9,73.5 373.3,73.5 C380.5,73.5 385.4,70.4 388,64.3 L397,68 C395.2,72.2 392.4,75.6 388.4,78.4 C384.2,81.2 379.3,82.6 373.4,82.6 L373.4,82.6 Z M387.9,47.6 C387.7,44.5 386.3,41.6 383.7,38.8 C381.1,36 377.3,34.6 372.2,34.6 C368.5,34.6 365.3,35.8 362.5,38.1 C359.8,40.4 357.9,43.6 356.9,47.5 L387.9,47.5 L387.9,47.6 Z" id="XMLID_13_" fill="#FAFAFA" fill-rule="nonzero"></path>
                <polygon id="XMLID_16_" fill="#FAFAFA" fill-rule="nonzero" points="419.7 80.8 398 27.2 409 27.2 424.8 68.8 425 68.8 441 27.2 451.7 27.2 429.8 80.8 419.7 80.8"></polygon>
                <polygon id="XMLID_18_" fill="#FAFAFA" fill-rule="nonzero" points="467.6 80.8 457.5 80.8 457.5 2.5 503.2 2.5 503.2 12.1 467.5 12.1 467.5 37.8 499.7 37.8 499.7 47.2 467.5 47.2 467.5 80.8"></polygon>
                <path d="M533.7,82.6 C525.6,82.6 519,79.9 514,74.5 C508.9,69.1 506.4,62.3 506.4,54 C506.4,46.2 508.9,39.5 513.8,33.9 C518.7,28.3 525,25.5 532.7,25.5 C540.6,25.5 547,28.1 551.8,33.3 C556.6,38.5 559,45.4 559,54.1 L558.9,56 L516.6,56 C516.9,61.4 518.7,65.7 522,68.8 C525.3,71.9 529.2,73.5 533.6,73.5 C540.8,73.5 545.7,70.4 548.3,64.3 L557.3,68 C555.5,72.2 552.7,75.6 548.7,78.4 C544.4,81.2 539.5,82.6 533.7,82.6 L533.7,82.6 Z M548.1,47.6 C547.9,44.5 546.5,41.6 543.9,38.8 C541.3,36 537.5,34.6 532.4,34.6 C528.7,34.6 525.5,35.8 522.7,38.1 C520,40.4 518.1,43.6 517.1,47.5 L548.1,47.5 L548.1,47.6 Z" id="XMLID_20_" fill="#FAFAFA" fill-rule="nonzero"></path>
                <path d="M585.5,82.6 C579.5,82.6 574.6,81.1 570.7,78.2 C566.8,75.3 563.9,71.6 562.1,67.3 L571.1,63.6 C573.9,70.3 578.8,73.7 585.6,73.7 C588.7,73.7 591.3,73 593.3,71.6 C595.3,70.2 596.3,68.4 596.3,66.1 C596.3,62.6 593.9,60.2 589,59 L578.2,56.4 C574.8,55.5 571.5,53.9 568.5,51.4 C565.4,49 563.9,45.7 563.9,41.5 C563.9,36.8 566,32.9 570.2,30 C574.4,27 579.4,25.6 585.1,25.6 C589.8,25.6 594.1,26.7 597.8,28.8 C601.5,31 604.2,34 605.8,38 L597,41.6 C595,36.9 590.9,34.5 584.8,34.5 C581.8,34.5 579.3,35.1 577.3,36.4 C575.3,37.6 574.2,39.3 574.2,41.4 C574.2,44.5 576.6,46.5 581.3,47.6 L591.9,50.1 C596.9,51.3 600.7,53.3 603.1,56.1 C605.5,58.9 606.7,62.2 606.7,65.7 C606.7,70.5 604.7,74.5 600.8,77.7 C596.8,81 591.7,82.6 585.5,82.6 L585.5,82.6 Z" id="XMLID_27_" fill="#FAFAFA" fill-rule="nonzero"></path>
                <path d="M636.9,81.7 C631.3,81.7 627,80.2 624,77.2 C621,74.2 619.6,70 619.6,64.5 L619.6,36.4 L610.2,36.4 L610.2,27.2 L619.6,27.2 L619.6,10.8 L629.7,10.8 L629.7,27.2 L642.8,27.2 L642.8,36.4 L629.7,36.4 L629.7,63.7 C629.7,69.5 632.1,72.5 636.9,72.5 C638.7,72.5 640.3,72.2 641.5,71.6 L645,80.2 C642.8,81.2 640.1,81.7 636.9,81.7 L636.9,81.7 Z" id="XMLID_29_" fill="#FAFAFA" fill-rule="nonzero"></path>
                <path d="M28.2,185.7 C22.5,185.7 17,183.8 11.5,180.1 C6.1,176.4 2.5,171.2 0.8,164.5 L10,160.8 C11.1,165.1 13.3,168.7 16.7,171.7 C20.1,174.7 23.9,176.1 28.1,176.1 C32.5,176.1 36.2,175 39.3,172.7 C42.4,170.4 43.9,167.3 43.9,163.3 C43.9,158.9 42.3,155.6 39.3,153.2 C36.2,150.8 31.3,148.6 24.6,146.6 C17.7,144.4 12.4,141.6 8.8,138.1 C5.2,134.6 3.4,130.2 3.4,124.8 C3.4,119.2 5.6,114.3 10.1,110.1 C14.5,105.9 20.3,103.9 27.5,103.9 C34.1,103.9 39.5,105.6 43.7,108.9 C47.9,112.2 50.6,115.8 51.8,119.8 L42.6,123.6 C41.9,121.1 40.3,118.8 37.7,116.7 C35.1,114.6 31.8,113.5 27.7,113.5 C23.8,113.5 20.5,114.6 17.8,116.7 C15.1,118.9 13.7,121.5 13.7,124.7 C13.7,127.6 15,130.1 17.5,132.1 C20,134.1 23.7,135.9 28.6,137.5 C32.5,138.7 35.7,139.9 38.3,141.1 C40.9,142.3 43.5,143.8 46.2,145.7 C48.9,147.6 50.9,150 52.2,152.9 C53.5,155.8 54.2,159.1 54.2,162.9 C54.2,166.7 53.4,170.1 51.8,173.1 C50.2,176.1 48.2,178.5 45.6,180.2 C43,182 40.2,183.3 37.2,184.2 C34.4,185.2 31.3,185.7 28.2,185.7 L28.2,185.7 Z" id="XMLID_31_" fill="#FAFAFA" fill-rule="nonzero"></path>
                <path d="M87.4,185.7 C79.3,185.7 72.7,183 67.7,177.6 C62.6,172.2 60.1,165.4 60.1,157.1 C60.1,149.3 62.6,142.6 67.5,137 C72.4,131.4 78.7,128.6 86.4,128.6 C94.3,128.6 100.7,131.2 105.5,136.4 C110.3,141.6 112.7,148.5 112.7,157.2 L112.6,159.1 L70.3,159.1 C70.6,164.5 72.4,168.8 75.7,171.9 C79,175 82.9,176.6 87.3,176.6 C94.5,176.6 99.4,173.5 102,167.4 L111,171.1 C109.2,175.3 106.4,178.7 102.4,181.5 C98.1,184.3 93.2,185.7 87.4,185.7 L87.4,185.7 Z M101.8,150.7 C101.6,147.6 100.2,144.7 97.6,141.9 C95,139.1 91.2,137.7 86.1,137.7 C82.4,137.7 79.2,138.9 76.4,141.2 C73.7,143.5 71.8,146.7 70.8,150.6 L101.8,150.6 L101.8,150.7 Z" id="XMLID_33_" fill="#FAFAFA" fill-rule="nonzero"></path>
                <path d="M136.3,185.7 C130.6,185.7 125.9,184.1 122,180.8 C118.2,177.5 116.3,173.2 116.3,167.8 C116.3,162 118.6,157.4 123.1,154.1 C127.6,150.8 133.2,149.1 139.8,149.1 C145.7,149.1 150.6,150.2 154.3,152.4 L154.3,150.9 C154.3,147 153,143.8 150.3,141.4 C147.6,139 144.3,137.8 140.3,137.8 C137.4,137.8 134.7,138.5 132.4,139.9 C130,141.3 128.4,143.2 127.5,145.6 L118.3,141.7 C119.5,138.5 122,135.5 125.6,132.8 C129.2,130.1 134.1,128.7 140,128.7 C146.9,128.7 152.5,130.7 157.1,134.7 C161.6,138.7 163.9,144.4 163.9,151.7 L163.9,184.1 L154.3,184.1 L154.3,176.7 L153.9,176.7 C149.9,182.6 144,185.7 136.3,185.7 L136.3,185.7 Z M138,176.5 C142.2,176.5 145.9,175 149.3,171.9 C152.7,168.8 154.4,165.1 154.4,160.9 C151.6,158.6 147.3,157.4 141.6,157.4 C136.7,157.4 133,158.5 130.6,160.6 C128.1,162.7 126.9,165.2 126.9,168 C126.9,170.6 128,172.7 130.3,174.2 C132.5,175.7 135,176.5 138,176.5 Z" id="XMLID_36_" fill="#FAFAFA" fill-rule="nonzero"></path>
                <path d="M193,185.7 C187,185.7 182.1,184.2 178.2,181.3 C174.3,178.4 171.4,174.7 169.6,170.4 L178.6,166.7 C181.4,173.4 186.3,176.8 193.1,176.8 C196.2,176.8 198.8,176.1 200.8,174.7 C202.8,173.3 203.8,171.5 203.8,169.2 C203.8,165.7 201.4,163.3 196.5,162.1 L185.7,159.5 C182.3,158.6 179,157 176,154.5 C172.9,152.1 171.4,148.8 171.4,144.6 C171.4,139.9 173.5,136 177.7,133.1 C181.9,130.1 186.9,128.7 192.6,128.7 C197.3,128.7 201.6,129.8 205.3,131.9 C209,134.1 211.7,137.1 213.3,141.1 L204.5,144.7 C202.5,140 198.4,137.6 192.3,137.6 C189.3,137.6 186.8,138.2 184.8,139.5 C182.8,140.7 181.7,142.4 181.7,144.5 C181.7,147.6 184.1,149.6 188.8,150.7 L199.4,153.2 C204.4,154.4 208.1,156.4 210.6,159.2 C213,162 214.2,165.3 214.2,168.8 C214.2,173.6 212.2,177.6 208.3,180.8 C204.2,184.1 199.2,185.7 193,185.7 L193,185.7 Z" id="XMLID_39_" fill="#FAFAFA" fill-rule="nonzero"></path>
                <path d="M225.7,136.7 C230.9,131.3 237.5,128.6 245.5,128.6 C253.5,128.6 260.1,131.3 265.3,136.7 C270.5,142.1 273.1,148.9 273.1,157.1 C273.1,165.3 270.5,172.1 265.3,177.5 C260.1,182.9 253.5,185.6 245.5,185.6 C237.5,185.6 230.9,182.9 225.7,177.5 C220.5,172.1 217.9,165.3 217.9,157.1 C217.9,149 220.5,142.2 225.7,136.7 Z M233.2,171.2 C236.7,174.7 240.8,176.5 245.5,176.5 C250.2,176.5 254.3,174.7 257.8,171.2 C261.3,167.7 263,163 263,157.1 C263,151.3 261.3,146.6 257.8,143 C254.3,139.5 250.2,137.7 245.5,137.7 C240.8,137.7 236.7,139.5 233.2,143 C229.7,146.5 228,151.2 228,157.1 C228,163 229.7,167.7 233.2,171.2 Z" id="XMLID_41_" fill="#FAFAFA" fill-rule="nonzero"></path>
                <path d="M289.8,130.3 L289.8,137.7 L290.2,137.7 C291.7,135.1 294,133 297.1,131.2 C300.2,129.4 303.6,128.5 307.2,128.5 C313.8,128.5 318.9,130.5 322.4,134.6 C325.9,138.7 327.6,144.2 327.6,151 L327.6,183.8 L317.5,183.8 L317.5,152.5 C317.5,142.6 313.1,137.6 304.3,137.6 C300.1,137.6 296.8,139.3 294.1,142.6 C291.5,145.9 290.2,149.8 290.2,154.1 L290.2,183.7 L280.1,183.7 L280.1,130.1 L289.8,130.1 L289.8,130.3 Z" id="XMLID_44_" fill="#FAFAFA" fill-rule="nonzero"></path>
                <path d="M409.5,183.9 L361.8,183.9 L361.8,173.8 C376.1,159.4 385.2,150.1 389.3,145.7 C392.9,141.7 395.3,138.6 396.5,136.6 C397.7,134.5 398.4,132 398.4,128.9 C398.4,125.8 397.2,123 394.7,120.6 C392.2,118.2 388.9,117 384.7,117 C380.9,117 377.8,118.1 375.5,120.3 C373.2,122.5 371.7,124.9 371,127.5 L361.8,123.8 C363,119.9 365.6,116.1 369.6,112.6 C373.5,109.1 378.6,107.4 384.9,107.4 C391.8,107.4 397.5,109.5 402,113.7 C406.4,117.9 408.7,123 408.7,128.9 C408.7,136.2 404.7,144 396.8,152.3 L374.9,174.3 L409.6,174.3 L409.6,183.9 L409.5,183.9 Z" id="XMLID_46_" fill="#FAFAFA" fill-rule="nonzero"></path>
                <path d="M467.1,174.4 C461.6,181.9 454.3,185.7 445.3,185.7 C436.3,185.7 429.1,181.9 423.5,174.4 C418,166.9 415.2,157.6 415.2,146.5 C415.2,135.3 418,126 423.5,118.6 C429,111.1 436.3,107.4 445.3,107.4 C454.3,107.4 461.5,111.1 467.1,118.6 C472.6,126.1 475.4,135.4 475.4,146.5 C475.4,157.6 472.6,166.9 467.1,174.4 Z M445.3,176.1 C451.3,176.1 456.1,173.3 459.7,167.7 C463.3,162.1 465.1,155.1 465.1,146.6 C465.1,138.1 463.3,131 459.7,125.4 C456.1,119.8 451.3,117 445.3,117 C439.2,117 434.4,119.8 430.9,125.4 C427.3,131 425.5,138 425.5,146.6 C425.5,155.1 427.3,162.1 430.9,167.7 C434.5,173.3 439.3,176.1 445.3,176.1 Z" id="XMLID_48_" fill="#FAFAFA" fill-rule="nonzero"></path>
                <polygon id="7" fill="#FFFFFF" points="564.249652 119.05 529.389652 182.68 520.779652 178.27 554.064652 118.42 517.734652 118.42 517.944652 109.18 564.249652 109.18"></polygon>
                <polygon id="XMLID_51_" fill="#FAFAFA" fill-rule="nonzero" points="507.3 183.9 497.2 183.9 497.2 121.6 482.7 127.9 478.9 119.4 500.9 109.1 507.4 109.1 507.4 183.9"></polygon>
            </g>
        </g>
    </g>
</svg>